<?xml version="1.0" standalone="no"?>
<!DOCTYPE svg PUBLIC "-//W3C//DTD SVG 20010904//EN"
 "http://www.w3.org/TR/2001/REC-SVG-20010904/DTD/svg10.dtd">
<svg version="1.0" xmlns="http://www.w3.org/2000/svg"
 width="2222.000000pt" height="2222.000000pt" viewBox="0 0 2222.000000 2222.000000"
 preserveAspectRatio="xMidYMid meet">

<g transform="translate(0.000000,2222.000000) scale(0.100000,-0.100000)"
fill="none" stroke="none">
<path d="M6357 11109 c-2611 -4522 -4746 -8224 -4744 -8226 2 -1 3755 -2 8340
-1 l8336 3 -2257 3910 c-1242 2151 -2856 4946 -3588 6212 -731 1267 -1331
2303 -1334 2303 -6 0 -6044 -10457 -6048 -10476 -3 -12 687 -14 4807 -14 2766
0 4811 4 4811 9 0 18 -3543 6114 -3557 6118 -6 2 -2286 -3900 -2301 -3938 -2
-5 273 -9 616 -9 l619 0 529 910 c291 500 531 909 534 910 3 0 387 -656 853
-1458 l848 -1457 -1475 -3 c-811 -1 -2140 -1 -2953 0 l-1479 3 2093 3625
c1151 1994 2098 3625 2103 3625 5 0 895 -1532 1976 -3405 1081 -1873 2276
-3941 2655 -4597 379 -656 689 -1195 689 -1198 0 -3 -2916 -5 -6480 -5 -3564
0 -6480 3 -6480 6 0 10 7634 13233 7640 13233 4 0 3448 -5970 8100 -14040
l155 -269 622 0 c343 0 623 2 623 3 0 10 -9492 16442 -9498 16445 -5 1 -2145
-3697 -4755 -8219z"/>
</g>
<style>
  g {
    fill: #000;
  }
  @media (prefers-color-scheme: dark) {
    g {
      fill: #fff;
    }
  }
</style>
</svg>
